<?xml version="1.0" encoding="utf-8"?>
<!-- Generator: Adobe Illustrator 21.0.2, SVG Export Plug-In . SVG Version: 6.00 Build 0)  -->
<svg version="1.1" id="Layer_1" xmlns="http://www.w3.org/2000/svg" xmlns:xlink="http://www.w3.org/1999/xlink" x="0px" y="0px"
	 viewBox="0 0 104 100" style="enable-background:new 0 0 104 100;" xml:space="preserve">
<style type="text/css">
	.st0{fill:#FFFFFF;}
</style>
<g>
	<path class="st0" d="M97.1,16.2L81.8,13v-2.5c0-3.7-2.9-6.5-6.5-6.5H28.8c-3.6,0-6.5,2.8-6.5,6.5V13L6.9,16.2
		c-3.5,0.8-5.7,4.1-5,7.7l14,66.9c0.7,3.1,3.4,5.2,6.4,5.2c0.4,0,0.8,0,1.2-0.1l28.5-6l28.5,6l0,0c0.4,0.1,0.8,0.1,1.2,0.1
		c3,0,5.7-2.1,6.4-5.2l14-66.9C102.8,20.4,100.6,17,97.1,16.2z M25.3,10.5c0-2,1.5-3.5,3.5-3.5h19.4h2.5h2.2h3.2h19.2
		c2,0,3.5,1.5,3.5,3.5v1.9v3.1v63.4c0,2-1.5,3.5-3.5,3.5h-1.6h-3.5H33.8h-3.5h-1.5c-1.9,0-3.5-1.6-3.5-3.6V15.4v-3.1V10.5z
		 M22.9,92.9c-1.9,0.3-3.7-0.9-4.1-2.7l-14-66.9c-0.4-1.9,0.9-3.7,2.7-4.2L22.3,16v62.8c0,3.6,2.9,6.6,6.5,6.6h3.9
		c0.7,0.4,1.4,0.8,2.3,1l9.7,2L22.9,92.9z M99.2,23.3l-14,66.9c-0.4,1.9-2.2,3.1-4.1,2.8l-21.8-4.5L52,86.9l-7-1.5H59h12.3h4
		c3.6,0,6.5-2.9,6.5-6.5V16.1l14.7,3.1C98.4,19.6,99.6,21.4,99.2,23.3z"/>
	<path class="st0" d="M68.5,59.6L68.5,59.6l-8.3-8.3c2.3-2.6,3.7-6,3.7-9.7c0-8.1-6.6-14.7-14.7-14.7c-8.1,0-14.7,6.6-14.7,14.7
		s6.6,14.7,14.7,14.7c3.3,0,6.4-1.1,8.8-3l8.4,8.3c0,0,0,0,0,0c0,0,0,0,0,0l0,0l0,0c0.6,0.6,1.5,0.6,2.1,0
		C69.1,61.2,69.1,60.2,68.5,59.6z M37.5,41.7c0-6.5,5.2-11.7,11.7-11.7c6.5,0,11.7,5.2,11.7,11.7s-5.2,11.7-11.7,11.7
		C42.7,53.4,37.5,48.2,37.5,41.7z"/>
</g>
</svg>
