<?xml version="1.0" encoding="utf-8"?>
<!-- Generator: Adobe Illustrator 21.0.2, SVG Export Plug-In . SVG Version: 6.00 Build 0)  -->
<svg version="1.1" id="Layer_1" xmlns="http://www.w3.org/2000/svg" xmlns:xlink="http://www.w3.org/1999/xlink" x="0px" y="0px"
	 viewBox="0 0 104 100" style="enable-background:new 0 0 104 100;" xml:space="preserve">
<style type="text/css">
	.st0{fill:#FFFFFF;stroke:#3399FF;stroke-width:3;stroke-miterlimit:10;}
	.st1{fill:#3399FF;stroke:#3399FF;stroke-width:3;stroke-miterlimit:10;}
</style>
<path class="st0" d="M80.8,94.4l-45.5-9.5c-2.7-0.6-4.4-3.2-3.9-5.9l14-66.9c0.6-2.7,3.2-4.4,5.9-3.9l45.5,9.5
	c2.7,0.6,4.4,3.2,3.9,5.9l-14,66.9C86.1,93.2,83.5,94.9,80.8,94.4z"/>
<path class="st0" d="M23.2,94.4l45.5-9.5c2.7-0.6,4.4-3.2,3.9-5.9L58.6,12c-0.6-2.7-3.2-4.4-5.9-3.9L7.2,17.7
	c-2.7,0.6-4.4,3.2-3.9,5.9l14,66.9C17.9,93.2,20.5,94.9,23.2,94.4z"/>
<path class="st0" d="M28.8,83.9h46.5c2.8,0,5-2.2,5-5V10.5c0-2.8-2.2-5-5-5H28.8c-2.8,0-5,2.2-5,5v68.3C23.8,81.6,26,83.9,28.8,83.9
	z"/>
<g>
	<circle class="st1" cx="52" cy="32.1" r="2.1"/>
	<circle class="st1" cx="61.2" cy="57.4" r="2.1"/>
	<circle class="st1" cx="42.8" cy="57.4" r="2.1"/>
	<circle class="st1" cx="65.6" cy="41.8" r="2.1"/>
	<circle class="st1" cx="38.4" cy="41.8" r="2.1"/>
</g>
</svg>
